<svg width="210" height="301" viewBox="0 0 210 301" fill="none" xmlns="http://www.w3.org/2000/svg">
<path d="M42.9837 0.894452C47.5481 0.0950124 55.1084 0.00254876 67.304 2.55461C92.7138 7.87401 119.845 32.0417 124.878 37.3612C127.46 40.0952 129.692 21.6046 135.324 29.5321C140.651 37.029 179.115 80.424 182.908 85.0019C187.402 90.4244 158.653 68.4495 162.109 79.8134C164.655 88.1874 188.39 99.6149 190.102 101.502C194.133 105.95 148.341 122.502 202.025 146.674C198.388 163.862 181.962 174.144 193.576 179.811C199.421 182.669 203.601 181.524 206.144 180.827C208.653 180.139 209.567 179.888 208.919 184.352C208.081 192.907 205.365 196.123 202.025 200.077C199.847 202.654 197.403 205.546 195.043 210.436C190.305 220.255 190.245 228.209 190.428 231.089C190.479 231.899 190.377 232.698 190.102 233.467C188.982 236.634 186.088 244.945 185.945 246.637C185.772 248.728 175.063 279.342 168.165 283.534C161.777 287.408 172.177 254.217 170.476 255.784C170.333 255.907 170.211 256.03 170.089 256.173C168.112 258.397 150.057 278.486 135.324 291C120.669 303.453 113.352 300.21 110.075 298.758C109.863 298.664 109.666 298.577 109.487 298.502C106.542 297.282 98.5647 289.432 98.5647 289.432L83.4758 273.033C83.4193 273.05 36.1912 287.181 29.6946 249.958C24.142 218.165 6.51603 170.61 1.48268 157.367C0.749112 155.419 1.06459 153.235 2.33815 151.605C9.582 142.35 8.68572 121.196 8.52272 117.947C8.46732 116.938 7.47471 113.885 6.19655 109.951C2.99362 100.095 -1.95438 72.6149 1.48268 69.9999C13.9997 79.8132 8.19655 58.5429 8.19655 58.5429C8.21654 58.5064 16.3187 43.7211 23.3401 31.8876C19.9994 52.4995 42.9833 66.5001 25.9993 29.5312C32.0818 27.1226 41.8731 24.3362 42.9837 17.4999C43.5745 13.8512 39.3669 1.51983 42.9837 0.894452ZM83.4993 204.5C77.0993 196.9 69.1659 205.667 65.9993 211C64.3326 205.5 59.4993 197.1 53.4993 207.5C47.4993 217.9 38.9993 220.167 35.4993 220C42.2992 227.2 59.3325 219.667 66.9993 215C77.7992 222.2 100.832 215.333 110.999 211C104.499 212 89.8992 212.1 83.4993 204.5ZM104.68 143.907C96.4889 143.907 89.8039 150.4 89.4339 158.549L47.7034 160.082C46.7532 152.521 40.337 146.674 32.5628 146.674C24.1337 146.674 17.3003 153.547 17.3001 162.026C17.3001 170.506 24.1336 177.381 32.5628 177.381C40.1101 177.381 46.3781 171.869 47.6067 164.629L89.8919 163.076C91.5778 169.71 97.56 174.615 104.68 174.615C113.109 174.615 119.943 167.74 119.943 159.262C119.943 150.782 113.109 143.907 104.68 143.907Z" fill="#FF0000"/>
</svg>
