<svg width="209" height="300" viewBox="0 0 209 300" fill="none" xmlns="http://www.w3.org/2000/svg">
<path d="M166.137 0.498945C161.573 -0.300495 154.012 -0.392959 141.817 2.1591C116.407 7.4785 89.2757 31.6462 84.2424 36.9657C81.6604 39.6997 79.429 21.2091 73.7961 29.1366C68.4691 36.6335 30.0051 80.0285 26.2121 84.6064C21.7189 90.0289 50.4677 68.054 47.0119 79.4179C44.4659 87.7919 20.7308 99.2194 19.0188 101.106C14.9874 105.555 60.7796 122.107 7.09593 146.278C10.733 163.466 27.1588 173.749 15.5442 179.416C9.69917 182.274 5.51979 181.129 2.97679 180.432C0.467978 179.744 -0.446523 179.492 0.2014 183.957C1.0394 192.512 3.75593 195.728 7.09593 199.682C9.27389 202.259 11.7174 205.15 14.0774 210.041C18.8154 219.86 18.8756 227.813 18.6926 230.693C18.6416 231.503 18.7438 232.302 19.0188 233.071C20.1388 236.238 23.0329 244.55 23.176 246.241C23.349 248.332 34.0573 278.947 40.9553 283.139C47.3432 287.013 36.944 253.821 38.6448 255.389C38.7876 255.511 38.9096 255.634 39.0315 255.777C41.0085 258.001 59.0631 278.09 73.7961 290.604C88.4521 303.057 95.769 299.814 99.0451 298.362C99.258 298.268 99.4543 298.181 99.634 298.106C102.579 296.887 110.556 289.036 110.556 289.036L125.645 272.638C125.701 272.655 172.929 286.786 179.426 249.562C184.979 217.77 202.605 170.214 207.638 156.972C208.371 155.024 208.056 152.84 206.782 151.21C199.539 141.955 200.435 120.801 200.598 117.552C200.653 116.542 201.646 113.489 202.924 109.556C206.127 99.6992 211.075 72.2194 207.638 69.6044C195.121 79.4177 200.924 58.1474 200.924 58.1474C200.904 58.1109 192.802 43.3256 185.781 31.4921C189.121 52.104 166.137 66.1046 183.121 29.1357C177.039 26.7271 167.248 23.9407 166.137 17.1044C165.546 13.4557 169.754 1.12432 166.137 0.498945ZM125.621 204.104C132.021 196.505 139.955 205.271 143.121 210.604C144.788 205.104 149.621 196.704 155.621 207.104C161.621 217.504 170.121 219.771 173.621 219.604C166.821 226.804 149.788 219.271 142.121 214.604C131.321 221.804 108.288 214.938 98.1213 210.604C104.622 211.604 119.221 211.704 125.621 204.104ZM104.441 143.512C112.632 143.512 119.317 150.004 119.687 158.153L161.417 159.686C162.367 152.125 168.784 146.278 176.558 146.278C184.987 146.278 191.82 153.152 191.821 161.631C191.821 170.111 184.987 176.985 176.558 176.985C169.01 176.985 162.743 171.473 161.514 164.233L119.229 162.681C117.543 169.314 111.561 174.22 104.441 174.22C96.0119 174.219 89.178 167.345 89.178 158.866C89.178 150.386 96.0119 143.512 104.441 143.512Z" fill="#FF0000"/>
</svg>
