<svg width="209" height="300" viewBox="0 0 209 300" fill="none" xmlns="http://www.w3.org/2000/svg">
<path d="M42.6668 0.498945C47.2312 -0.300495 54.7915 -0.392959 66.9871 2.1591C92.3969 7.4785 119.528 31.6462 124.561 36.9657C127.143 39.6997 129.375 21.2091 135.008 29.1366C140.335 36.6335 178.799 80.0285 182.592 84.6064C187.085 90.0289 158.336 68.054 161.792 79.4179C164.338 87.7919 188.073 99.2194 189.785 101.106C193.816 105.555 148.024 122.107 201.708 146.278C198.071 163.466 181.645 173.749 193.26 179.416C199.105 182.274 203.284 181.129 205.827 180.432C208.336 179.744 209.25 179.492 208.602 183.957C207.764 192.512 205.048 195.728 201.708 199.682C199.53 202.259 197.086 205.15 194.726 210.041C189.988 219.86 189.928 227.813 190.111 230.693C190.162 231.503 190.06 232.302 189.785 233.071C188.665 236.238 185.771 244.55 185.628 246.241C185.455 248.332 174.746 278.947 167.848 283.139C161.46 287.013 171.86 253.821 170.159 255.389C170.016 255.511 169.894 255.634 169.772 255.777C167.795 258.001 149.741 278.09 135.008 290.604C120.352 303.057 113.035 299.814 109.759 298.362C109.546 298.268 109.349 298.181 109.17 298.106C106.225 296.887 98.2478 289.036 98.2478 289.036L83.159 272.638C83.1024 272.655 35.8743 286.786 29.3777 249.562C23.8251 217.77 6.19914 170.214 1.16579 156.972C0.432218 155.024 0.747697 152.84 2.02126 151.21C9.2651 141.955 8.36883 120.801 8.20583 117.552C8.15043 116.542 7.15782 113.489 5.87966 109.556C2.67673 99.6992 -2.27128 72.2194 1.16579 69.6044C13.6828 79.4177 7.87966 58.1474 7.87966 58.1474C7.89964 58.1109 16.0018 43.3256 23.0232 31.4921C19.6825 52.104 42.6664 66.1046 25.6824 29.1357C31.7649 26.7271 41.5562 23.9407 42.6668 17.1044C43.2576 13.4557 39.05 1.12432 42.6668 0.498945ZM83.1824 204.104C76.7824 196.505 68.849 205.271 65.6824 210.604C64.0157 205.104 59.1824 196.704 53.1824 207.104C47.1824 217.504 38.6824 219.771 35.1824 219.604C41.9823 226.804 59.0156 219.271 66.6824 214.604C77.4823 221.804 100.516 214.938 110.682 210.604C104.182 211.604 89.5823 211.704 83.1824 204.104ZM104.363 143.512C96.1721 143.512 89.487 150.004 89.117 158.153L47.3865 159.686C46.4363 152.125 40.0202 146.278 32.2459 146.278C23.8168 146.278 16.9834 153.152 16.9832 161.631C16.9832 170.111 23.8167 176.985 32.2459 176.985C39.7932 176.985 46.0612 171.473 47.2898 164.233L89.575 162.681C91.2609 169.314 97.2432 174.22 104.363 174.22C112.792 174.219 119.626 167.345 119.626 158.866C119.626 150.386 112.792 143.512 104.363 143.512Z" fill="#B8B8B8"/>
</svg>
